<mxfile host="65bd71144e">
    <diagram id="ZxcNrr2-RxVxVpdg4Wmk" name="Page-1">
        <mxGraphModel dx="846" dy="726" grid="1" gridSize="10" guides="1" tooltips="1" connect="1" arrows="1" fold="1" page="1" pageScale="1" pageWidth="850" pageHeight="1100" math="0" shadow="0">
            <root>
                <mxCell id="0"/>
                <mxCell id="1" parent="0"/>
                <mxCell id="PJ3xckfTSliCAF6zciwJ-3" value="student send requst to make a group" style="text;html=1;align=center;verticalAlign=middle;resizable=0;points=[];autosize=1;strokeColor=none;fillColor=none;" parent="1" vertex="1">
                    <mxGeometry y="180" width="210" height="20" as="geometry"/>
                </mxCell>
                <mxCell id="PJ3xckfTSliCAF6zciwJ-14" style="edgeStyle=orthogonalEdgeStyle;rounded=0;orthogonalLoop=1;jettySize=auto;html=1;entryX=0;entryY=0.5;entryDx=0;entryDy=0;" parent="1" source="PJ3xckfTSliCAF6zciwJ-4" target="PJ3xckfTSliCAF6zciwJ-12" edge="1">
                    <mxGeometry relative="1" as="geometry"/>
                </mxCell>
                <mxCell id="PJ3xckfTSliCAF6zciwJ-4" value="the group get check by the admin" style="rounded=0;whiteSpace=wrap;html=1;" parent="1" vertex="1">
                    <mxGeometry x="210" y="190" width="90" height="40" as="geometry"/>
                </mxCell>
                <mxCell id="PJ3xckfTSliCAF6zciwJ-5" value="" style="endArrow=classic;html=1;rounded=0;exitX=0.5;exitY=1;exitDx=0;exitDy=0;entryX=0.5;entryY=0;entryDx=0;entryDy=0;" parent="1" source="PJ3xckfTSliCAF6zciwJ-4" target="OdFfhlGP0_GXfFOtKDw0-12" edge="1">
                    <mxGeometry width="50" height="50" relative="1" as="geometry">
                        <mxPoint x="300" y="300" as="sourcePoint"/>
                        <mxPoint x="255" y="360" as="targetPoint"/>
                    </mxGeometry>
                </mxCell>
                <mxCell id="PJ3xckfTSliCAF6zciwJ-6" value="the group is good" style="text;html=1;align=center;verticalAlign=middle;resizable=0;points=[];autosize=1;strokeColor=none;fillColor=none;" parent="1" vertex="1">
                    <mxGeometry x="140" y="270" width="110" height="20" as="geometry"/>
                </mxCell>
                <mxCell id="PJ3xckfTSliCAF6zciwJ-9" style="edgeStyle=orthogonalEdgeStyle;rounded=0;orthogonalLoop=1;jettySize=auto;html=1;" parent="1" source="PJ3xckfTSliCAF6zciwJ-7" target="PJ3xckfTSliCAF6zciwJ-4" edge="1">
                    <mxGeometry relative="1" as="geometry"/>
                </mxCell>
                <mxCell id="PJ3xckfTSliCAF6zciwJ-7" value="" style="shape=waypoint;sketch=0;fillStyle=solid;size=6;pointerEvents=1;points=[];fillColor=none;resizable=0;rotatable=0;perimeter=centerPerimeter;snapToPoint=1;" parent="1" vertex="1">
                    <mxGeometry y="190" width="40" height="40" as="geometry"/>
                </mxCell>
                <mxCell id="PJ3xckfTSliCAF6zciwJ-10" value="" style="ellipse;html=1;shape=endState;fillColor=#000000;strokeColor=#050000;" parent="1" vertex="1">
                    <mxGeometry x="240" y="490" width="30" height="30" as="geometry"/>
                </mxCell>
                <mxCell id="9" style="edgeStyle=none;html=1;exitX=1;exitY=0.5;exitDx=0;exitDy=0;entryX=0;entryY=0.5;entryDx=0;entryDy=0;" parent="1" source="PJ3xckfTSliCAF6zciwJ-12" target="4" edge="1">
                    <mxGeometry relative="1" as="geometry"/>
                </mxCell>
                <mxCell id="PJ3xckfTSliCAF6zciwJ-12" value="show the group" style="rounded=0;whiteSpace=wrap;html=1;" parent="1" vertex="1">
                    <mxGeometry x="430" y="190" width="90" height="40" as="geometry"/>
                </mxCell>
                <mxCell id="PJ3xckfTSliCAF6zciwJ-15" value="the group already exist" style="text;html=1;align=center;verticalAlign=middle;resizable=0;points=[];autosize=1;strokeColor=none;fillColor=none;" parent="1" vertex="1">
                    <mxGeometry x="293" y="190" width="140" height="20" as="geometry"/>
                </mxCell>
                <mxCell id="2" style="edgeStyle=none;html=1;exitX=0;exitY=0.5;exitDx=0;exitDy=0;entryX=1;entryY=0.5;entryDx=0;entryDy=0;rounded=0;" parent="1" source="PJ3xckfTSliCAF6zciwJ-16" target="PJ3xckfTSliCAF6zciwJ-10" edge="1">
                    <mxGeometry relative="1" as="geometry">
                        <Array as="points">
                            <mxPoint x="370" y="355"/>
                            <mxPoint x="370" y="505"/>
                        </Array>
                    </mxGeometry>
                </mxCell>
                <mxCell id="PJ3xckfTSliCAF6zciwJ-16" value="admin accept his joining" style="rounded=0;whiteSpace=wrap;html=1;" parent="1" vertex="1">
                    <mxGeometry x="410" y="335" width="90" height="40" as="geometry"/>
                </mxCell>
                <mxCell id="OdFfhlGP0_GXfFOtKDw0-14" style="edgeStyle=orthogonalEdgeStyle;rounded=0;orthogonalLoop=1;jettySize=auto;html=1;" parent="1" source="OdFfhlGP0_GXfFOtKDw0-4" target="OdFfhlGP0_GXfFOtKDw0-7" edge="1">
                    <mxGeometry relative="1" as="geometry"/>
                </mxCell>
                <mxCell id="OdFfhlGP0_GXfFOtKDw0-4" value="admin not accepting his joining" style="rounded=0;whiteSpace=wrap;html=1;" parent="1" vertex="1">
                    <mxGeometry x="620" y="335" width="90" height="40" as="geometry"/>
                </mxCell>
                <mxCell id="OdFfhlGP0_GXfFOtKDw0-10" style="edgeStyle=orthogonalEdgeStyle;rounded=0;orthogonalLoop=1;jettySize=auto;html=1;entryX=1;entryY=0.5;entryDx=0;entryDy=0;" parent="1" source="OdFfhlGP0_GXfFOtKDw0-7" target="PJ3xckfTSliCAF6zciwJ-16" edge="1">
                    <mxGeometry relative="1" as="geometry">
                        <mxPoint x="550" y="390" as="targetPoint"/>
                        <Array as="points">
                            <mxPoint x="550" y="565"/>
                            <mxPoint x="550" y="355"/>
                        </Array>
                    </mxGeometry>
                </mxCell>
                <mxCell id="OdFfhlGP0_GXfFOtKDw0-16" style="edgeStyle=orthogonalEdgeStyle;rounded=0;orthogonalLoop=1;jettySize=auto;html=1;entryX=1;entryY=0.25;entryDx=0;entryDy=0;" parent="1" source="OdFfhlGP0_GXfFOtKDw0-7" target="OdFfhlGP0_GXfFOtKDw0-15" edge="1">
                    <mxGeometry relative="1" as="geometry">
                        <Array as="points">
                            <mxPoint x="550" y="565"/>
                            <mxPoint x="550" y="480"/>
                        </Array>
                    </mxGeometry>
                </mxCell>
                <mxCell id="OdFfhlGP0_GXfFOtKDw0-7" value="student can ask the admin again to join with explanation why he wants to join" style="rounded=0;whiteSpace=wrap;html=1;" parent="1" vertex="1">
                    <mxGeometry x="640" y="510" width="90" height="110" as="geometry"/>
                </mxCell>
                <mxCell id="OdFfhlGP0_GXfFOtKDw0-9" value="student gets massage explaining &lt;br&gt;why cant he join" style="text;html=1;align=center;verticalAlign=middle;resizable=0;points=[];autosize=1;strokeColor=none;fillColor=none;" parent="1" vertex="1">
                    <mxGeometry x="660" y="390" width="190" height="30" as="geometry"/>
                </mxCell>
                <mxCell id="OdFfhlGP0_GXfFOtKDw0-11" value="student ask again" style="text;html=1;align=center;verticalAlign=middle;resizable=0;points=[];autosize=1;strokeColor=none;fillColor=none;" parent="1" vertex="1">
                    <mxGeometry x="500" y="570" width="110" height="20" as="geometry"/>
                </mxCell>
                <mxCell id="OdFfhlGP0_GXfFOtKDw0-13" style="edgeStyle=orthogonalEdgeStyle;rounded=0;orthogonalLoop=1;jettySize=auto;html=1;" parent="1" source="OdFfhlGP0_GXfFOtKDw0-12" target="PJ3xckfTSliCAF6zciwJ-10" edge="1">
                    <mxGeometry relative="1" as="geometry"/>
                </mxCell>
                <mxCell id="OdFfhlGP0_GXfFOtKDw0-12" value="add new group" style="rounded=0;whiteSpace=wrap;html=1;" parent="1" vertex="1">
                    <mxGeometry x="210" y="350" width="90" height="40" as="geometry"/>
                </mxCell>
                <mxCell id="3" style="edgeStyle=none;html=1;exitX=0;exitY=0.5;exitDx=0;exitDy=0;entryX=1;entryY=0.5;entryDx=0;entryDy=0;rounded=0;" parent="1" source="OdFfhlGP0_GXfFOtKDw0-15" target="PJ3xckfTSliCAF6zciwJ-10" edge="1">
                    <mxGeometry relative="1" as="geometry">
                        <Array as="points">
                            <mxPoint x="370" y="490"/>
                            <mxPoint x="370" y="505"/>
                        </Array>
                    </mxGeometry>
                </mxCell>
                <mxCell id="OdFfhlGP0_GXfFOtKDw0-15" value="admin won`t accept again" style="rounded=0;whiteSpace=wrap;html=1;" parent="1" vertex="1">
                    <mxGeometry x="410" y="470" width="90" height="40" as="geometry"/>
                </mxCell>
                <mxCell id="7" style="edgeStyle=none;html=1;exitX=0.5;exitY=1;exitDx=0;exitDy=0;entryX=0.5;entryY=0;entryDx=0;entryDy=0;rounded=0;" parent="1" source="4" target="OdFfhlGP0_GXfFOtKDw0-4" edge="1">
                    <mxGeometry relative="1" as="geometry">
                        <Array as="points">
                            <mxPoint x="605" y="280"/>
                            <mxPoint x="665" y="280"/>
                        </Array>
                    </mxGeometry>
                </mxCell>
                <mxCell id="8" style="edgeStyle=none;html=1;exitX=0.5;exitY=1;exitDx=0;exitDy=0;entryX=0.5;entryY=0;entryDx=0;entryDy=0;rounded=0;" parent="1" source="4" target="PJ3xckfTSliCAF6zciwJ-16" edge="1">
                    <mxGeometry relative="1" as="geometry">
                        <Array as="points">
                            <mxPoint x="605" y="280"/>
                            <mxPoint x="455" y="280"/>
                        </Array>
                    </mxGeometry>
                </mxCell>
                <mxCell id="4" value="user ask the admin to join group" style="rounded=0;whiteSpace=wrap;html=1;" parent="1" vertex="1">
                    <mxGeometry x="560" y="190" width="90" height="40" as="geometry"/>
                </mxCell>
                <mxCell id="10" value="&lt;font style=&quot;font-size: 20px&quot;&gt;State machine diagram&lt;/font&gt;" style="text;html=1;align=center;verticalAlign=middle;resizable=0;points=[];autosize=1;strokeColor=none;" vertex="1" parent="1">
                    <mxGeometry x="260" y="60" width="220" height="20" as="geometry"/>
                </mxCell>
            </root>
        </mxGraphModel>
    </diagram>
</mxfile>